<svg width="219" height="218" viewBox="0 0 219 218" fill="none" xmlns="http://www.w3.org/2000/svg">
<g filter="url(#filter0_d_603_1381)">
<ellipse cx="109.5" cy="93.5" rx="94" ry="93.5" fill="#22222A"/>
<path fill-rule="evenodd" clip-rule="evenodd" d="M72.8666 43.6333C65.7152 43.6333 60.4236 49.8593 60.6605 56.6113C60.888 63.0981 60.5925 71.4995 58.4662 78.3508C56.3324 85.2213 52.7261 89.5752 46.8345 90.134V96.4433C52.7261 97.0033 56.3324 101.355 58.466 108.226C60.5925 115.078 60.8877 123.479 60.6603 129.966C60.4233 136.717 65.715 142.944 72.8676 142.944H146.145C153.297 142.944 158.587 136.718 158.35 129.966C158.123 123.479 158.418 115.078 160.545 108.226C162.678 101.355 166.276 97.0016 172.168 96.4433V90.134C166.276 89.5739 162.679 85.2223 160.545 78.3508C158.418 71.5004 158.123 63.0981 158.35 56.6113C158.587 49.8603 153.297 43.6333 146.145 43.6333H72.8656H72.8666ZM131.806 104.765C131.806 114.063 124.834 119.701 113.264 119.701H93.5689C93.0055 119.701 92.4651 119.479 92.0668 119.082C91.6684 118.686 91.4446 118.149 91.4446 117.588V68.9893C91.4446 68.4289 91.6684 67.8915 92.0668 67.4952C92.4651 67.0989 93.0055 66.8763 93.5689 66.8763H113.152C122.8 66.8763 129.131 72.0743 129.131 80.055C129.131 85.6564 124.872 90.6711 119.446 91.5496V91.8418C126.832 92.6478 131.806 97.7367 131.806 104.765V104.765ZM111.117 73.5745H99.8867V89.3526H109.345C116.657 89.3526 120.689 86.4239 120.689 81.1891C120.688 76.2833 117.222 73.5745 111.117 73.5745ZM99.8867 95.613V113.001H111.53C119.143 113.001 123.175 109.962 123.175 104.252C123.175 98.5417 119.03 95.612 111.04 95.612H99.8867V95.613Z" fill="#7952B3"/>
</g>
<defs>
<filter id="filter0_d_603_1381" x="0.267582" y="0" width="218.465" height="217.465" filterUnits="userSpaceOnUse" color-interpolation-filters="sRGB">
<feFlood flood-opacity="0" result="BackgroundImageFix"/>
<feColorMatrix in="SourceAlpha" type="matrix" values="0 0 0 0 0 0 0 0 0 0 0 0 0 0 0 0 0 0 127 0" result="hardAlpha"/>
<feOffset dy="15.2324"/>
<feGaussianBlur stdDeviation="7.61621"/>
<feComposite in2="hardAlpha" operator="out"/>
<feColorMatrix type="matrix" values="0 0 0 0 0 0 0 0 0 0 0 0 0 0 0 0 0 0 0.25 0"/>
<feBlend mode="normal" in2="BackgroundImageFix" result="effect1_dropShadow_603_1381"/>
<feBlend mode="normal" in="SourceGraphic" in2="effect1_dropShadow_603_1381" result="shape"/>
</filter>
</defs>
</svg>
