<svg width="220" height="218" viewBox="0 0 220 218" fill="none" xmlns="http://www.w3.org/2000/svg">
<g filter="url(#filter0_d_603_1387)">
<ellipse cx="110" cy="94" rx="94" ry="93.5" fill="#22222A"/>
<path d="M163.784 69.2594C163.783 67.2549 163.352 65.4836 162.481 63.9639C161.624 62.4686 160.342 61.2157 158.622 60.2251C144.426 52.083 130.216 43.9659 116.025 35.8156C112.199 33.6185 108.489 33.699 104.692 35.9276C99.0413 39.2419 70.7512 55.3637 62.3212 60.2205C58.8494 62.22 57.1601 65.2795 57.1592 69.2556C57.1538 85.6298 57.1592 102.004 57.1538 118.378C57.1538 120.339 57.5673 122.076 58.4005 123.573C59.257 125.113 60.5571 126.4 62.3166 127.413C70.747 132.27 99.0408 148.391 104.69 151.706C108.489 153.936 112.199 154.016 116.026 151.818C130.218 143.667 144.429 135.55 158.627 127.408C160.386 126.396 161.687 125.107 162.543 123.569C163.375 122.071 163.789 120.334 163.789 118.373C163.789 118.373 163.789 85.6339 163.784 69.2594Z" fill="#A179DC"/>
<path d="M110.635 93.6572L58.4004 123.573C59.257 125.113 60.557 126.4 62.3165 127.413C70.747 132.27 99.0407 148.39 104.69 151.706C108.489 153.936 112.199 154.016 116.026 151.818C130.218 143.667 144.429 135.55 158.627 127.408C160.386 126.396 161.686 125.107 162.543 123.568L110.635 93.6572Z" fill="#280068"/>
<path d="M163.784 69.2591C163.783 67.2546 163.352 65.4834 162.481 63.9636L110.635 93.6575L162.543 123.568C163.375 122.071 163.789 120.334 163.789 118.373C163.789 118.373 163.789 85.6337 163.784 69.2591" fill="#390091"/>
<path d="M141.388 82.4739V88.0657H147.01V82.4739H149.821V88.0657H155.443V90.8616H149.821V96.453H155.443V99.2489H149.821V104.841H147.01V99.2489H141.388V104.841H138.577V99.2489H132.956V96.453H138.577V90.8616H132.956V88.0657H138.577V82.4739H141.388ZM147.01 90.8612H141.388V96.453H147.01V90.8612Z" fill="white"/>
<path d="M110.749 54.3913C125.412 54.3913 138.214 62.3121 145.071 74.0859L145.004 73.9726L127.752 83.8531C124.353 78.1289 118.122 74.2656 110.974 74.1859L110.749 74.1847C99.8488 74.1847 91.0119 82.9745 91.0119 93.8166C91.0083 97.2339 91.9059 100.592 93.615 103.557C97.0171 109.464 103.413 113.449 110.749 113.449C118.131 113.449 124.563 109.414 127.948 103.443L127.866 103.586L145.092 113.512C138.31 125.187 125.683 133.083 111.191 133.24L110.749 133.243C96.0399 133.243 83.2019 125.273 76.3618 113.437C73.0228 107.659 71.1123 100.96 71.1123 93.8166C71.1123 72.0428 88.8578 54.3909 110.749 54.3909L110.749 54.3913Z" fill="white"/>
</g>
<defs>
<filter id="filter0_d_603_1387" x="0.767582" y="0.5" width="218.465" height="217.465" filterUnits="userSpaceOnUse" color-interpolation-filters="sRGB">
<feFlood flood-opacity="0" result="BackgroundImageFix"/>
<feColorMatrix in="SourceAlpha" type="matrix" values="0 0 0 0 0 0 0 0 0 0 0 0 0 0 0 0 0 0 127 0" result="hardAlpha"/>
<feOffset dy="15.2324"/>
<feGaussianBlur stdDeviation="7.61621"/>
<feComposite in2="hardAlpha" operator="out"/>
<feColorMatrix type="matrix" values="0 0 0 0 0 0 0 0 0 0 0 0 0 0 0 0 0 0 0.25 0"/>
<feBlend mode="normal" in2="BackgroundImageFix" result="effect1_dropShadow_603_1387"/>
<feBlend mode="normal" in="SourceGraphic" in2="effect1_dropShadow_603_1387" result="shape"/>
</filter>
</defs>
</svg>
