<svg width="219" height="218" viewBox="0 0 219 218" fill="none" xmlns="http://www.w3.org/2000/svg">
<g filter="url(#filter0_d_603_1378)">
<ellipse cx="109.5" cy="93.5" rx="94" ry="93.5" fill="#22222A"/>
<path d="M164.872 40.9351L154.902 152.021L110.091 164.379L65.402 152.039L55.4434 40.9351H164.872Z" fill="#264DE4"/>
<path d="M146.368 144.948L154.887 50.0193H110.158V154.933L146.368 144.948Z" fill="#2965F1"/>
<path d="M78.2739 91.2261L79.5018 104.852H110.158V91.2261H78.2739Z" fill="#EBEBEB"/>
<path d="M110.158 63.6458H110.111H75.8066L77.052 77.2723H110.158V63.6458Z" fill="#EBEBEB"/>
<path d="M110.158 140.792V126.615L110.097 126.631L94.8405 122.533L93.8652 111.666H86.4515H80.1133L82.0325 133.061L110.094 140.81L110.158 140.792Z" fill="#EBEBEB"/>
<path d="M126.979 104.852L125.389 122.525L110.11 126.627V140.803L138.195 133.061L138.401 130.759L141.62 94.885L141.954 91.2259L144.427 63.6458H110.11V77.2723H129.414L128.167 91.2259H110.11V104.852H126.979Z" fill="white"/>
</g>
<defs>
<filter id="filter0_d_603_1378" x="0.267582" y="0" width="218.465" height="217.465" filterUnits="userSpaceOnUse" color-interpolation-filters="sRGB">
<feFlood flood-opacity="0" result="BackgroundImageFix"/>
<feColorMatrix in="SourceAlpha" type="matrix" values="0 0 0 0 0 0 0 0 0 0 0 0 0 0 0 0 0 0 127 0" result="hardAlpha"/>
<feOffset dy="15.2324"/>
<feGaussianBlur stdDeviation="7.61621"/>
<feComposite in2="hardAlpha" operator="out"/>
<feColorMatrix type="matrix" values="0 0 0 0 0 0 0 0 0 0 0 0 0 0 0 0 0 0 0.25 0"/>
<feBlend mode="normal" in2="BackgroundImageFix" result="effect1_dropShadow_603_1378"/>
<feBlend mode="normal" in="SourceGraphic" in2="effect1_dropShadow_603_1378" result="shape"/>
</filter>
</defs>
</svg>
