<svg width="219" height="219" viewBox="0 0 219 219" fill="none" xmlns="http://www.w3.org/2000/svg">
<g filter="url(#filter0_d_603_1388)">
<ellipse cx="109.5" cy="94" rx="93.5" ry="94" fill="#22222A"/>
<path d="M109.476 33.8914C78.9114 33.8914 80.8198 47.2167 80.8198 47.2167L80.8537 61.0222H110.021V65.167H69.269C69.269 65.167 49.7109 62.937 49.7109 93.9411C49.7109 124.946 66.7817 123.846 66.7817 123.846H76.9695V109.459C76.9695 109.459 76.4203 92.2969 93.7678 92.2969H122.696C122.696 92.2969 138.949 92.5609 138.949 76.505V49.9576C138.949 49.9576 141.418 33.8914 109.476 33.8914ZM93.393 43.1753C94.0823 43.1746 94.7649 43.3107 95.4018 43.5756C96.0386 43.8404 96.6173 44.229 97.1047 44.7189C97.5921 45.2089 97.9785 45.7907 98.242 46.431C98.5055 47.0713 98.6408 47.7575 98.6401 48.4504C98.6408 49.1434 98.5055 49.8296 98.242 50.4699C97.9785 51.1102 97.5921 51.692 97.1047 52.1819C96.6173 52.6719 96.0386 53.0604 95.4018 53.3253C94.7649 53.5902 94.0823 53.7262 93.393 53.7256C92.7038 53.7262 92.0212 53.5902 91.3843 53.3253C90.7474 53.0604 90.1687 52.6719 89.6814 52.1819C89.194 51.692 88.8075 51.1102 88.5441 50.4699C88.2806 49.8296 88.1453 49.1434 88.1459 48.4504C88.1453 47.7575 88.2806 47.0713 88.5441 46.431C88.8075 45.7907 89.194 45.2089 89.6814 44.7189C90.1687 44.229 90.7474 43.8404 91.3843 43.5756C92.0212 43.3107 92.7038 43.1746 93.393 43.1753V43.1753Z" fill="url(#paint0_linear_603_1388)"/>
<path d="M110.344 154.303C140.908 154.303 139 140.977 139 140.977L138.966 127.172H109.798V123.028H150.55C150.55 123.028 170.108 125.258 170.108 94.2526C170.108 63.248 153.037 64.3476 153.037 64.3476H142.849V78.7347C142.849 78.7347 143.399 95.8968 126.051 95.8968H97.1227C97.1227 95.8968 80.8699 95.6328 80.8699 111.689V138.237C80.8699 138.237 78.4019 154.303 110.343 154.303H110.344ZM126.426 145.02C125.737 145.021 125.055 144.885 124.418 144.62C123.781 144.355 123.202 143.966 122.715 143.476C122.227 142.986 121.841 142.404 121.577 141.764C121.314 141.124 121.179 140.438 121.179 139.745C121.179 139.052 121.314 138.365 121.577 137.725C121.841 137.085 122.227 136.503 122.715 136.013C123.202 135.523 123.781 135.134 124.418 134.869C125.055 134.604 125.737 134.468 126.426 134.469C127.116 134.468 127.798 134.604 128.435 134.869C129.072 135.134 129.651 135.523 130.138 136.013C130.625 136.503 131.012 137.084 131.275 137.725C131.539 138.365 131.674 139.051 131.674 139.744C131.674 140.437 131.539 141.123 131.275 141.764C131.012 142.404 130.625 142.986 130.138 143.476C129.651 143.966 129.072 144.354 128.435 144.619C127.798 144.884 127.116 145.02 126.426 145.019V145.02Z" fill="url(#paint1_linear_603_1388)"/>
</g>
<defs>
<filter id="filter0_d_603_1388" x="0.767582" y="0" width="217.465" height="218.465" filterUnits="userSpaceOnUse" color-interpolation-filters="sRGB">
<feFlood flood-opacity="0" result="BackgroundImageFix"/>
<feColorMatrix in="SourceAlpha" type="matrix" values="0 0 0 0 0 0 0 0 0 0 0 0 0 0 0 0 0 0 127 0" result="hardAlpha"/>
<feOffset dy="15.2324"/>
<feGaussianBlur stdDeviation="7.61621"/>
<feComposite in2="hardAlpha" operator="out"/>
<feColorMatrix type="matrix" values="0 0 0 0 0 0 0 0 0 0 0 0 0 0 0 0 0 0 0.25 0"/>
<feBlend mode="normal" in2="BackgroundImageFix" result="effect1_dropShadow_603_1388"/>
<feBlend mode="normal" in="SourceGraphic" in2="effect1_dropShadow_603_1388" result="shape"/>
</filter>
<linearGradient id="paint0_linear_603_1388" x1="61.281" y1="44.7216" x2="121.261" y2="103.787" gradientUnits="userSpaceOnUse">
<stop stop-color="#387EB8"/>
<stop offset="1" stop-color="#366994"/>
</linearGradient>
<linearGradient id="paint1_linear_603_1388" x1="97.9036" y1="82.8557" x2="162.3" y2="143.407" gradientUnits="userSpaceOnUse">
<stop stop-color="#FFE052"/>
<stop offset="1" stop-color="#FFC331"/>
</linearGradient>
</defs>
</svg>
