<svg width="219" height="218" viewBox="0 0 219 218" fill="none" xmlns="http://www.w3.org/2000/svg">
<g filter="url(#filter0_d_603_1384)">
<ellipse cx="109.497" cy="93.5002" rx="94" ry="93.5" fill="#22222A"/>
<path d="M81.8281 96.5267C74.7301 96.5267 68.9444 90.7261 68.9444 83.615C68.9444 76.504 74.7301 70.7034 81.8281 70.7034C88.9261 70.7034 94.7118 76.504 94.7118 83.615C94.7118 90.721 88.921 96.5267 81.8281 96.5267ZM50.893 122.162C43.8051 122.147 38.0348 116.321 38.0552 109.21C38.0593 105.799 39.4225 102.529 41.8461 100.117C44.2697 97.704 47.556 96.3455 50.9849 96.3388C58.0778 96.354 63.8481 102.18 63.8226 109.296C63.8159 112.705 62.4516 115.973 60.0285 118.385C57.6053 120.796 54.3205 122.154 50.893 122.162ZM168.148 122.162C164.72 122.169 161.428 120.824 158.994 118.422C156.561 116.02 155.183 112.757 155.162 109.347C155.127 102.226 160.872 96.3794 167.954 96.3438C171.381 96.3384 174.67 97.6831 177.103 100.084C179.536 102.484 180.913 105.745 180.935 109.154C180.976 116.27 175.226 122.121 168.148 122.162Z" fill="white"/>
<path d="M144 71.4554C140.497 70.3684 136.753 69.9163 133.082 69.5201C127.403 68.9106 125.141 66.7062 124.181 61.0478C123.64 57.8885 122.884 54.6479 121.511 51.778C118.891 46.3178 112.753 43.8695 106.589 45.2663C101.381 46.4498 97.0556 51.6053 96.8156 56.898C96.5398 62.9322 100.012 68.0878 105.977 69.8655C108.811 70.7138 111.824 71.1354 114.78 71.3538C120.208 71.7449 122.021 73.355 123.487 75.8134C124.416 77.3677 125.31 78.8966 125.31 83.5188C125.31 88.1461 124.406 89.6749 123.487 91.2241C122.021 93.6825 120.208 95.2876 114.78 95.6889C111.818 95.9022 108.806 96.3288 105.977 97.1771C100.012 98.9599 96.5398 104.105 96.8156 110.15C97.0556 115.437 101.386 120.593 106.589 121.776C112.753 123.178 118.891 120.725 121.511 115.265C122.889 112.4 123.64 109.154 124.181 105.995C125.146 100.336 127.409 98.1371 133.082 97.5225C136.759 97.1263 140.497 96.6692 144 95.5822C149.315 93.9314 152.512 88.9994 152.512 83.5188C152.512 78.0433 149.315 73.1163 144 71.4554Z" fill="#F44250"/>
</g>
<defs>
<filter id="filter0_d_603_1384" x="0.264164" y="0" width="218.468" height="217.465" filterUnits="userSpaceOnUse" color-interpolation-filters="sRGB">
<feFlood flood-opacity="0" result="BackgroundImageFix"/>
<feColorMatrix in="SourceAlpha" type="matrix" values="0 0 0 0 0 0 0 0 0 0 0 0 0 0 0 0 0 0 127 0" result="hardAlpha"/>
<feOffset dy="15.2324"/>
<feGaussianBlur stdDeviation="7.61621"/>
<feComposite in2="hardAlpha" operator="out"/>
<feColorMatrix type="matrix" values="0 0 0 0 0 0 0 0 0 0 0 0 0 0 0 0 0 0 0.25 0"/>
<feBlend mode="normal" in2="BackgroundImageFix" result="effect1_dropShadow_603_1384"/>
<feBlend mode="normal" in="SourceGraphic" in2="effect1_dropShadow_603_1384" result="shape"/>
</filter>
</defs>
</svg>
