<svg width="219" height="218" viewBox="0 0 219 218" fill="none" xmlns="http://www.w3.org/2000/svg">
<g filter="url(#filter0_d_603_1383)">
<ellipse cx="109.5" cy="93.5" rx="94" ry="93.5" fill="#22222A"/>
<path d="M109.884 106.44C117.069 106.44 122.893 100.647 122.893 93.5007C122.893 86.3545 117.069 80.5613 109.884 80.5613C102.7 80.5613 96.8755 86.3545 96.8755 93.5007C96.8755 100.647 102.7 106.44 109.884 106.44Z" fill="#61DAFB"/>
<path d="M109.886 120.011C148.437 120.011 179.689 108.142 179.689 93.5008C179.689 78.8597 148.437 66.9907 109.886 66.9907C71.3356 66.9907 40.084 78.8597 40.084 93.5008C40.084 108.142 71.3356 120.011 109.886 120.011Z" stroke="#61DAFB" stroke-width="4.56615"/>
<path d="M86.8063 106.756C106.082 139.964 132.041 160.95 144.789 153.63C157.536 146.309 152.244 113.454 132.969 80.2458C113.693 47.0374 87.7336 26.0512 74.9862 33.3717C62.2389 40.6923 67.5309 73.5475 86.8063 106.756Z" stroke="#61DAFB" stroke-width="4.56615"/>
<path d="M86.8066 80.2457C67.5313 113.454 62.2392 146.309 74.9866 153.63C87.734 160.95 113.694 139.964 132.969 106.756C152.244 73.5474 157.536 40.6922 144.789 33.3717C132.042 26.0511 106.082 47.0374 86.8066 80.2457Z" stroke="#61DAFB" stroke-width="4.56615"/>
</g>
<defs>
<filter id="filter0_d_603_1383" x="0.267582" y="0" width="218.465" height="217.465" filterUnits="userSpaceOnUse" color-interpolation-filters="sRGB">
<feFlood flood-opacity="0" result="BackgroundImageFix"/>
<feColorMatrix in="SourceAlpha" type="matrix" values="0 0 0 0 0 0 0 0 0 0 0 0 0 0 0 0 0 0 127 0" result="hardAlpha"/>
<feOffset dy="15.2324"/>
<feGaussianBlur stdDeviation="7.61621"/>
<feComposite in2="hardAlpha" operator="out"/>
<feColorMatrix type="matrix" values="0 0 0 0 0 0 0 0 0 0 0 0 0 0 0 0 0 0 0.25 0"/>
<feBlend mode="normal" in2="BackgroundImageFix" result="effect1_dropShadow_603_1383"/>
<feBlend mode="normal" in="SourceGraphic" in2="effect1_dropShadow_603_1383" result="shape"/>
</filter>
</defs>
</svg>
