<svg width="219" height="218" viewBox="0 0 219 218" fill="none" xmlns="http://www.w3.org/2000/svg">
<g filter="url(#filter0_d_603_1380)">
<ellipse cx="109.5" cy="93.5" rx="94" ry="93.5" fill="#22222A"/>
<path d="M165.547 96.5194C160.737 96.5444 156.557 97.6966 153.057 99.3999C151.772 96.8701 150.488 94.6157 150.262 92.9626C150.01 91.0339 149.708 89.8566 150.01 87.5522C150.312 85.2478 151.672 81.9665 151.647 81.7161C151.621 81.4656 151.344 80.2883 148.574 80.2633C145.804 80.2382 143.412 80.7893 143.135 81.5157C142.858 82.2421 142.329 83.8952 141.977 85.5985C141.498 88.1033 136.437 97.0454 133.541 101.729C132.609 99.9009 131.803 98.2978 131.627 97.0203C131.375 95.0917 131.073 93.9144 131.375 91.61C131.677 89.3056 133.037 86.0243 133.012 85.7738C132.987 85.5233 132.71 84.3461 129.94 84.321C127.17 84.296 124.778 84.8471 124.501 85.5734C124.224 86.2998 123.921 88.0031 123.342 89.6563C122.763 91.3094 116.039 106.238 114.277 110.095C113.37 112.074 112.589 113.652 112.035 114.729C112.035 114.729 112.01 114.804 111.935 114.93C111.456 115.856 111.179 116.357 111.179 116.357C111.179 116.357 111.179 116.357 111.179 116.382C110.802 117.059 110.399 117.685 110.197 117.685C110.046 117.685 109.769 115.881 110.248 113.427C111.255 108.242 113.647 100.176 113.622 99.9009C113.622 99.7506 114.075 98.3479 112.061 97.6215C110.096 96.8951 109.391 98.0974 109.215 98.0974C109.039 98.0974 108.913 98.5232 108.913 98.5232C108.913 98.5232 111.104 89.4559 104.733 89.4559C100.754 89.4559 95.2644 93.7892 92.5447 97.6966C90.8324 98.6234 87.181 100.602 83.2778 102.731C81.7921 103.558 80.256 104.384 78.8206 105.161C78.7199 105.061 78.6191 104.935 78.5184 104.835C70.8128 96.6446 56.5598 90.8586 57.1642 79.8625C57.3908 75.8548 58.7758 65.3347 84.5369 52.5603C105.74 42.1654 122.612 45.0459 125.533 51.4331C129.713 60.5506 116.493 77.483 94.5845 79.9377C86.2241 80.8644 81.8424 77.6583 80.7344 76.456C79.5761 75.2036 79.3998 75.1285 78.9717 75.3789C78.2666 75.7547 78.7199 76.8818 78.9717 77.5331C79.6264 79.2363 82.3209 82.2421 86.8788 83.7199C90.9079 85.0224 100.704 85.7488 112.564 81.1901C125.835 76.0803 136.21 61.8781 133.163 49.9803C130.116 37.9072 109.971 33.9246 90.9079 40.6625C79.576 44.6702 67.2873 50.9822 58.4485 59.198C47.9476 68.9667 46.2856 77.4579 46.9655 81.0147C49.4082 93.6389 66.9096 101.855 73.9101 107.941C73.5576 108.142 73.2302 108.317 72.9532 108.467C69.4529 110.196 56.1065 117.134 52.7825 124.473C49.0053 132.789 53.3869 138.75 56.2828 139.552C65.2727 142.031 74.5145 137.573 79.4753 130.209C84.4362 122.845 83.8318 113.276 81.5402 108.893C81.5151 108.843 81.4899 108.793 81.4395 108.743C82.3461 108.217 83.2778 107.666 84.1843 107.14C85.9722 106.088 87.735 105.111 89.2459 104.309C88.3897 106.639 87.7602 109.419 87.458 113.427C87.0803 118.136 89.0193 124.247 91.5626 126.652C92.6958 127.704 94.0304 127.729 94.8866 127.729C97.8581 127.729 99.1927 125.274 100.678 122.369C102.492 118.812 104.128 114.679 104.128 114.679C104.128 114.679 102.089 125.851 107.629 125.851C109.643 125.851 111.683 123.246 112.589 121.918C112.589 121.943 112.589 121.943 112.589 121.943C112.589 121.943 112.64 121.868 112.741 121.693C112.942 121.367 113.068 121.167 113.068 121.167C113.068 121.167 113.068 121.142 113.068 121.116C113.874 119.714 115.687 116.533 118.381 111.248C121.856 104.435 125.206 95.9182 125.206 95.9182C125.206 95.9182 125.508 97.9972 126.54 101.454C127.145 103.483 128.404 105.712 129.411 107.866C128.605 108.993 128.102 109.619 128.102 109.619C128.102 109.619 128.102 109.619 128.127 109.645C127.472 110.496 126.767 111.423 125.986 112.325C123.241 115.581 119.968 119.313 119.515 120.39C118.986 121.668 119.112 122.594 120.119 123.346C120.849 123.897 122.159 123.972 123.493 123.897C125.961 123.721 127.699 123.12 128.555 122.745C129.889 122.269 131.451 121.542 132.911 120.465C135.606 118.486 137.243 115.656 137.091 111.924C137.016 109.87 136.336 107.816 135.505 105.887C135.757 105.537 135.983 105.186 136.235 104.835C140.491 98.6485 143.79 91.8605 143.79 91.8605C143.79 91.8605 144.092 93.9395 145.124 97.3961C145.628 99.1494 146.661 101.053 147.567 102.907C143.563 106.138 141.095 109.895 140.214 112.35C138.628 116.908 139.861 118.962 142.203 119.438C143.261 119.664 144.772 119.163 145.88 118.687C147.29 118.236 148.952 117.459 150.539 116.307C153.233 114.328 155.827 111.573 155.676 107.841C155.6 106.138 155.147 104.46 154.517 102.831C157.917 101.429 162.299 100.652 167.889 101.304C179.875 102.706 182.243 110.145 181.789 113.276C181.336 116.407 178.818 118.111 177.987 118.637C177.156 119.163 176.879 119.338 176.954 119.714C177.055 120.265 177.458 120.24 178.163 120.14C179.145 119.964 184.459 117.61 184.685 111.849C185.063 104.485 178.012 96.4442 165.547 96.5194ZM73.0791 127.529C69.1004 131.837 63.5604 133.465 61.1681 132.087C58.5995 130.61 59.6068 124.247 64.4921 119.689C67.4636 116.908 71.2912 114.328 73.8346 112.75C74.4138 112.4 75.27 111.899 76.3024 111.273C76.4787 111.172 76.5794 111.122 76.5794 111.122C76.7809 110.997 76.9823 110.872 77.1838 110.747C78.9717 117.259 77.2593 122.995 73.0791 127.529ZM102.038 107.941C100.653 111.298 97.7574 119.889 95.9946 119.413C94.4837 119.012 93.552 112.5 95.6925 106.063C96.7753 102.831 99.0668 98.9741 100.401 97.4712C102.567 95.0666 104.959 94.2651 105.539 95.2419C106.269 96.5194 102.894 105.837 102.038 107.941ZM125.936 119.313C125.357 119.614 124.803 119.814 124.551 119.664C124.375 119.563 124.803 119.163 124.803 119.163C124.803 119.163 127.799 115.957 128.983 114.504C129.663 113.652 130.469 112.65 131.325 111.523C131.325 111.623 131.325 111.749 131.325 111.849C131.325 115.681 127.598 118.261 125.936 119.313ZM144.369 115.13C143.941 114.829 144.016 113.828 145.452 110.697C146.006 109.469 147.315 107.415 149.556 105.436C149.808 106.238 149.985 107.014 149.959 107.741C149.934 112.575 146.459 114.379 144.369 115.13Z" fill="#CD6799"/>
</g>
<defs>
<filter id="filter0_d_603_1380" x="0.267582" y="0" width="218.465" height="217.465" filterUnits="userSpaceOnUse" color-interpolation-filters="sRGB">
<feFlood flood-opacity="0" result="BackgroundImageFix"/>
<feColorMatrix in="SourceAlpha" type="matrix" values="0 0 0 0 0 0 0 0 0 0 0 0 0 0 0 0 0 0 127 0" result="hardAlpha"/>
<feOffset dy="15.2324"/>
<feGaussianBlur stdDeviation="7.61621"/>
<feComposite in2="hardAlpha" operator="out"/>
<feColorMatrix type="matrix" values="0 0 0 0 0 0 0 0 0 0 0 0 0 0 0 0 0 0 0.25 0"/>
<feBlend mode="normal" in2="BackgroundImageFix" result="effect1_dropShadow_603_1380"/>
<feBlend mode="normal" in="SourceGraphic" in2="effect1_dropShadow_603_1380" result="shape"/>
</filter>
</defs>
</svg>
