<svg width="220" height="218" viewBox="0 0 220 218" fill="none" xmlns="http://www.w3.org/2000/svg">
<g filter="url(#filter0_d_603_1389)">
<ellipse cx="110" cy="94" rx="94" ry="93.5" fill="#22222A"/>
<path d="M168.65 89.0453L115.802 36.4817C112.76 33.4543 107.824 33.4543 104.779 36.4817L93.8048 47.3974L107.726 61.2444C110.961 60.1571 114.671 60.8865 117.249 63.4516C119.84 66.033 120.569 69.7545 119.449 72.9827L132.865 86.3279C136.111 85.2157 139.856 85.9352 142.449 88.5181C146.072 92.1206 146.072 97.9594 142.449 101.564C138.824 105.17 132.954 105.17 129.328 101.564C126.603 98.8506 125.93 94.8695 127.31 91.5299L114.798 79.0848L114.796 111.835C115.703 112.281 116.532 112.87 117.249 113.58C120.873 117.182 120.873 123.022 117.249 126.629C113.625 130.233 107.752 130.233 104.134 126.629C100.51 123.022 100.51 117.183 104.134 113.58C105.002 112.716 106.034 112.032 107.169 111.567V78.5115C106.032 78.0497 105 77.365 104.134 76.4982C101.388 73.7714 100.728 69.7649 102.135 66.4121L88.4119 52.7607L52.1753 88.8022C49.1304 91.8323 49.1304 96.7427 52.1753 99.7705L105.024 152.335C108.066 155.363 113.002 155.363 116.048 152.335L168.649 100.015C171.693 96.9859 171.693 92.0727 168.649 89.0453" fill="#DE4C36"/>
</g>
<defs>
<filter id="filter0_d_603_1389" x="0.767582" y="0.5" width="218.465" height="217.465" filterUnits="userSpaceOnUse" color-interpolation-filters="sRGB">
<feFlood flood-opacity="0" result="BackgroundImageFix"/>
<feColorMatrix in="SourceAlpha" type="matrix" values="0 0 0 0 0 0 0 0 0 0 0 0 0 0 0 0 0 0 127 0" result="hardAlpha"/>
<feOffset dy="15.2324"/>
<feGaussianBlur stdDeviation="7.61621"/>
<feComposite in2="hardAlpha" operator="out"/>
<feColorMatrix type="matrix" values="0 0 0 0 0 0 0 0 0 0 0 0 0 0 0 0 0 0 0.25 0"/>
<feBlend mode="normal" in2="BackgroundImageFix" result="effect1_dropShadow_603_1389"/>
<feBlend mode="normal" in="SourceGraphic" in2="effect1_dropShadow_603_1389" result="shape"/>
</filter>
</defs>
</svg>
