<svg width="218" height="218" viewBox="0 0 218 218" fill="none" xmlns="http://www.w3.org/2000/svg">
<g filter="url(#filter0_d_603_1377)">
<circle cx="109" cy="93.5" r="93.5" fill="#22222A"/>
<path d="M65.1075 151.792L55.231 40.9351H163.813L153.937 151.732L109.432 164.063" fill="#E44D26"/>
<path d="M109.521 154.636V50.0344H153.906L145.436 144.61" fill="#F16529"/>
<path d="M75.4033 63.5916H109.522V77.1793H90.3079L91.565 91.0963H109.522V104.654H79.1145L75.4033 63.5916ZM79.7131 111.478H93.3607L94.3184 122.342L109.522 126.412V140.599L81.6285 132.817" fill="#EBEBEB"/>
<path d="M143.521 63.5916H109.461V77.1793H142.264L143.521 63.5916ZM141.036 91.0963H109.461V104.684H126.222L124.635 122.342L109.461 126.412V140.539L137.295 132.817" fill="white"/>
</g>
<defs>
<filter id="filter0_d_603_1377" x="0.267582" y="0" width="217.465" height="217.465" filterUnits="userSpaceOnUse" color-interpolation-filters="sRGB">
<feFlood flood-opacity="0" result="BackgroundImageFix"/>
<feColorMatrix in="SourceAlpha" type="matrix" values="0 0 0 0 0 0 0 0 0 0 0 0 0 0 0 0 0 0 127 0" result="hardAlpha"/>
<feOffset dy="15.2324"/>
<feGaussianBlur stdDeviation="7.61621"/>
<feComposite in2="hardAlpha" operator="out"/>
<feColorMatrix type="matrix" values="0 0 0 0 0 0 0 0 0 0 0 0 0 0 0 0 0 0 0.25 0"/>
<feBlend mode="normal" in2="BackgroundImageFix" result="effect1_dropShadow_603_1377"/>
<feBlend mode="normal" in="SourceGraphic" in2="effect1_dropShadow_603_1377" result="shape"/>
</filter>
</defs>
</svg>
