<svg width="219" height="218" viewBox="0 0 219 218" fill="none" xmlns="http://www.w3.org/2000/svg">
<g filter="url(#filter0_d_603_1386)">
<ellipse cx="109.5" cy="93.5" rx="94" ry="93.5" fill="#22222A"/>
<path d="M57.8643 42.1389H161.038V144.764H57.8643V42.1389Z" fill="#017ACB"/>
<path d="M107.404 80.1422H112.353V88.6408H98.9728V126.452L98.6182 126.548C98.1346 126.676 91.7668 126.676 90.3965 126.532L89.3003 126.436V88.6408H75.9199V80.1422L80.1597 80.0941C82.4811 80.062 88.4459 80.062 93.4111 80.0941C98.3764 80.1262 104.664 80.1422 107.404 80.1422V80.1422ZM145.175 122.443C143.209 124.511 141.097 125.666 137.582 126.612C136.051 127.029 135.793 127.045 132.343 127.029C128.893 127.013 128.619 127.013 126.943 126.58C122.606 125.474 119.108 123.309 116.722 120.246C116.045 119.38 114.933 117.584 114.933 117.36C114.933 117.296 115.094 117.151 115.303 117.055C115.513 116.959 115.948 116.686 116.303 116.478C116.657 116.269 117.302 115.885 117.738 115.66C118.173 115.436 119.43 114.698 120.527 114.041C121.623 113.383 122.622 112.854 122.735 112.854C122.848 112.854 123.057 113.078 123.219 113.351C124.186 114.971 126.443 117.039 128.039 117.745C129.022 118.162 131.199 118.627 132.246 118.627C133.214 118.627 134.987 118.21 135.938 117.777C136.954 117.312 137.47 116.847 138.082 115.917C138.501 115.259 138.55 115.083 138.534 113.832C138.534 112.678 138.469 112.357 138.147 111.828C137.244 110.352 136.019 109.583 131.053 107.402C125.927 105.141 123.622 103.794 121.752 101.982C120.365 100.635 120.091 100.266 119.221 98.5826C118.092 96.4179 117.947 95.7123 117.931 92.4893C117.915 90.2283 117.963 89.4907 118.205 88.721C118.544 87.5665 119.64 85.3376 120.14 84.7764C121.171 83.5737 121.542 83.2049 122.268 82.6116C124.46 80.8157 127.878 79.6291 131.15 79.5168C131.521 79.5168 132.746 79.581 133.891 79.6612C137.179 79.9338 139.42 80.7355 141.58 82.4513C143.209 83.7341 145.675 86.7487 145.433 87.1496C145.272 87.3901 138.84 91.6555 138.421 91.7837C138.163 91.8639 137.985 91.7677 137.631 91.3508C135.438 88.7371 134.552 88.1758 132.424 88.0475C130.908 87.9513 130.102 88.1277 129.087 88.8012C128.023 89.5067 127.507 90.5811 127.507 92.0724C127.523 94.2531 128.361 95.2794 131.457 96.8027C133.455 97.7809 135.164 98.5826 135.293 98.5826C135.487 98.5826 139.63 100.635 140.71 101.277C145.74 104.211 147.787 107.226 148.319 112.421C148.706 116.334 147.594 119.909 145.175 122.443V122.443Z" fill="white"/>
</g>
<defs>
<filter id="filter0_d_603_1386" x="0.267582" y="0" width="218.465" height="217.465" filterUnits="userSpaceOnUse" color-interpolation-filters="sRGB">
<feFlood flood-opacity="0" result="BackgroundImageFix"/>
<feColorMatrix in="SourceAlpha" type="matrix" values="0 0 0 0 0 0 0 0 0 0 0 0 0 0 0 0 0 0 127 0" result="hardAlpha"/>
<feOffset dy="15.2324"/>
<feGaussianBlur stdDeviation="7.61621"/>
<feComposite in2="hardAlpha" operator="out"/>
<feColorMatrix type="matrix" values="0 0 0 0 0 0 0 0 0 0 0 0 0 0 0 0 0 0 0.25 0"/>
<feBlend mode="normal" in2="BackgroundImageFix" result="effect1_dropShadow_603_1386"/>
<feBlend mode="normal" in="SourceGraphic" in2="effect1_dropShadow_603_1386" result="shape"/>
</filter>
</defs>
</svg>
