<svg width="163" height="161" viewBox="0 0 163 161" fill="none" xmlns="http://www.w3.org/2000/svg">
<path id="linkedin" d="M151.357 0H11.6065C5.2029 0 0 5.21094 0 11.6078V149.392C0 155.789 5.2029 161 11.6065 161H151.357C157.761 161 163 155.789 163 149.392V11.6078C163 5.21094 157.761 0 151.357 0ZM49.2638 138H25.1049V61.1656H49.3002V138H49.2638ZM37.1844 50.6719C29.4346 50.6719 23.1766 44.4547 23.1766 36.8359C23.1766 29.2172 29.4346 23 37.1844 23C44.8978 23 51.1922 29.2172 51.1922 36.8359C51.1922 44.4906 44.9342 50.6719 37.1844 50.6719ZM139.823 138H115.665V100.625C115.665 91.7125 115.483 80.2484 103.112 80.2484C90.5232 80.2484 88.5949 89.9516 88.5949 99.9781V138H64.4359V61.1656H87.6125V71.6594H87.94C91.1781 65.6219 99.0734 59.2609 110.825 59.2609C135.275 59.2609 139.823 75.1812 139.823 95.8812V138Z" fill="white"/>
</svg>
