<svg width="89" height="89" viewBox="0 0 89 89" fill="none" xmlns="http://www.w3.org/2000/svg">
<path d="M15.2562 54.9593C14.435 54.8473 14.0987 53.8422 14.6871 53.2585L27.5648 40.4849C28.2658 39.7895 28.5798 38.7937 28.4044 37.822L25.1823 19.9721C25.035 19.1565 25.887 18.5261 26.624 18.9053L42.7519 27.2054C43.6298 27.6573 44.6739 27.6482 45.5438 27.1811L61.5244 18.6008C62.2546 18.2087 63.1175 18.8241 62.9845 19.6422L60.0744 37.5457C59.916 38.5203 60.2473 39.5104 60.9603 40.1934L74.059 52.7404C74.6575 53.3137 74.3388 54.3245 73.5197 54.4509L55.5932 57.2157C54.6174 57.3662 53.7781 57.9872 53.3488 58.8764L45.4636 75.2112C45.1033 75.9576 44.0435 75.9669 43.6702 75.2269L35.5012 59.0322C35.0565 58.1506 34.2065 57.5443 33.2281 57.4108L15.2562 54.9593Z" fill="#3D48E9" stroke="black" stroke-width="2"/>
<path d="M43.1038 13.0765C43.4706 12.3333 44.5304 12.3333 44.8972 13.0765L52.9247 29.3419C53.3616 30.2273 54.2063 30.841 55.1835 30.983L73.1333 33.5913C73.9536 33.7105 74.2811 34.7184 73.6876 35.297L60.6989 47.9578C59.9918 48.647 59.6692 49.64 59.8361 50.6132L62.9023 68.4905C63.0424 69.3074 62.185 69.9304 61.4514 69.5447L45.3965 61.1042C44.5225 60.6447 43.4784 60.6447 42.6045 61.1042L26.5496 69.5447C25.816 69.9304 24.9585 69.3074 25.0987 68.4905L28.1649 50.6132C28.3318 49.64 28.0091 48.647 27.3021 47.9578L14.3134 35.297C13.7199 34.7184 14.0474 33.7105 14.8676 33.5913L32.8175 30.983C33.7946 30.841 34.6393 30.2273 35.0763 29.3419L43.1038 13.0765Z" fill="#E9DE3D" stroke="black" stroke-width="2"/>
</svg>
