<svg width="198" height="161" viewBox="0 0 198 161" fill="none" xmlns="http://www.w3.org/2000/svg">
<path id="twitter" d="M177.648 40.1241C177.773 41.8849 177.773 43.6462 177.773 45.407C177.773 99.1154 136.942 161 62.3149 161C39.3236 161 17.9659 154.333 0 142.762C3.26663 143.139 6.40718 143.265 9.79949 143.265C28.7701 143.265 46.2336 136.85 60.1791 125.907C42.3389 125.53 27.3883 113.832 22.2372 97.732C24.7501 98.1091 27.2626 98.3608 29.9012 98.3608C33.5445 98.3608 37.1882 97.8575 40.5801 96.9774C21.9862 93.2037 8.0403 76.8523 8.0403 57.1046V56.6017C13.4424 59.6204 19.7247 61.5071 26.3828 61.7584C15.4526 54.4629 8.29167 42.0108 8.29167 27.9232C8.29167 20.3764 10.3015 13.4584 13.8194 7.42091C33.7955 32.074 63.8224 48.1737 97.4922 49.935C96.8642 46.9162 96.4871 43.772 96.4871 40.6274C96.4871 18.2381 114.579 0 137.067 0C148.751 0 159.304 4.90546 166.717 12.8297C175.888 11.0688 184.683 7.67257 192.472 3.01877C189.457 12.4526 183.049 20.3768 174.632 25.4077C182.798 24.5277 190.713 22.2631 198 19.1189C192.473 27.1686 185.563 34.3378 177.648 40.1241Z" fill="white"/>
</svg>
