<svg width="161" height="161" viewBox="0 0 161 161" fill="none" xmlns="http://www.w3.org/2000/svg">
<path d="M80.5 0C36.04 0 0 36.04 0 80.5C0 124.96 36.04 161 80.5 161C124.96 161 161 124.96 161 80.5C161 36.04 124.96 0 80.5 0ZM107.211 116.076C105.945 117.335 104.618 118.656 103.54 119.737C102.569 120.711 101.884 121.912 101.537 123.214C101.047 125.051 100.651 126.908 99.9888 128.69L94.344 143.897C89.8776 144.871 85.2553 145.419 80.5 145.419V136.532C81.0486 132.435 78.0201 124.762 73.1544 119.896C71.2068 117.949 70.1129 115.307 70.1129 112.551V102.16C70.1129 98.382 68.0777 94.9089 64.77 93.0814C60.1056 90.5008 53.4708 86.8946 48.9265 84.6061C45.2001 82.73 41.7529 80.3409 38.653 77.5462L38.3933 77.3125C36.1765 75.3114 34.2083 73.0512 32.5311 70.5803C29.4864 66.1106 24.5265 58.7585 21.3033 53.9804C27.9478 39.2113 39.9222 27.3505 54.8017 20.9073L62.5952 24.8057C66.0489 26.5325 70.1129 24.0234 70.1129 20.1607V16.4928C72.7064 16.074 75.3454 15.8079 78.0298 15.7072L87.2159 24.8933C89.2446 26.9221 89.2446 30.2102 87.2159 32.239L85.6935 33.7581L82.3372 37.1144C81.3245 38.1271 81.3245 39.7728 82.3372 40.7856L83.8596 42.3079C84.8723 43.3207 84.8723 44.9664 83.8596 45.9791L81.2628 48.5759C80.7752 49.0625 80.1144 49.3357 79.4256 49.3355H76.5075C75.8323 49.3355 75.1831 49.5984 74.6962 50.0723L71.4762 53.2047C71.0815 53.589 70.8191 54.0888 70.7269 54.632C70.6348 55.1752 70.7175 55.7336 70.9633 56.2267L76.0238 66.3508C76.8872 68.0777 75.631 70.1097 73.7029 70.1097H71.8722C71.2457 70.1097 70.642 69.8824 70.1713 69.4734L67.1591 66.8572C66.4774 66.2658 65.6536 65.8621 64.7686 65.6857C63.8836 65.5092 62.9679 65.5662 62.1116 65.8509L51.9939 69.2235C51.2215 69.4811 50.5497 69.9752 50.0737 70.6358C49.5977 71.2965 49.3417 72.0902 49.342 72.9044C49.342 74.3749 50.1729 75.7154 51.4875 76.3744L55.0841 78.1726C58.1385 79.7015 61.5078 80.4968 64.9226 80.4968C68.3374 80.4968 72.2552 89.355 75.3097 90.8838H96.9765C99.7324 90.8838 102.371 91.9777 104.322 93.9253L108.766 98.369C110.622 100.226 111.665 102.745 111.665 105.371C111.664 107.36 111.27 109.33 110.506 111.168C109.742 113.005 108.622 114.673 107.211 116.076ZM135.357 86.4239C133.477 85.9532 131.838 84.8009 130.764 83.1877L124.928 74.4333C124.074 73.1542 123.618 71.6508 123.618 70.1129C123.618 68.575 124.074 67.0716 124.928 65.7925L131.286 56.2559C132.039 55.1295 133.072 54.2142 134.286 53.6104L138.499 51.5038C142.887 60.2419 145.419 70.0707 145.419 80.5C145.419 83.3143 145.179 86.0701 144.829 88.7902L135.357 86.4239Z" fill="white"/>
</svg>
