<svg width="135" height="161" viewBox="0 0 135 161" fill="none" xmlns="http://www.w3.org/2000/svg">
<path id="cv" fill-rule="evenodd" clip-rule="evenodd" d="M6.75 161H135V6.70833H128.25V154.292H6.75V161ZM121.5 0H0V147.583H121.5V0ZM101.25 114.042H20.25V120.75H101.25V114.042ZM101.25 93.9167H20.25V100.625H101.25V93.9167ZM101.25 73.7917H20.25V80.5H101.25V73.7917ZM51.651 47.8774L58.05 49.8899C57.0713 53.4386 55.4378 56.075 53.1562 57.7923C50.8747 59.5163 47.979 60.375 44.469 60.375C40.1288 60.375 36.5647 58.8992 33.7702 55.9542C30.9757 53.0092 29.5785 48.9775 29.5785 43.8658C29.5785 38.4589 30.9825 34.2595 33.7905 31.2675C36.5985 28.2756 40.2907 26.7797 44.874 26.7797C48.87 26.7797 52.1167 27.9536 54.6142 30.3015C56.106 31.6902 57.2197 33.6893 57.9622 36.2854L51.4283 37.835C51.0435 36.1512 50.2335 34.823 49.0117 33.8503C47.7832 32.8708 46.2915 32.3878 44.5365 32.3878C42.1132 32.3878 40.149 33.2532 38.637 34.9773C37.1317 36.708 36.3757 39.5054 36.3757 43.3761C36.3757 47.4883 37.1182 50.4131 38.61 52.1506C40.095 53.8948 42.0255 54.7668 44.4015 54.7668C46.1565 54.7668 47.6685 54.2168 48.9307 53.1032C50.193 51.9963 51.1043 50.2521 51.651 47.8774ZM72.0563 59.8182L60.372 27.3365H67.527L75.8025 51.3791L83.808 27.3365H90.8077L79.1032 59.8182H72.0563Z" fill="white"/>
</svg>
