<svg width="75" height="56" viewBox="0 0 75 56" fill="none" xmlns="http://www.w3.org/2000/svg">
<path d="M73.5791 18.4917C74.1504 18.0396 75 18.4625 75 19.1771V49C75 52.8646 71.8506 56 67.9688 56H7.03125C3.14941 56 0 52.8646 0 49V19.1917C0 18.4625 0.834961 18.0542 1.4209 18.5062C4.70215 21.0437 9.05273 24.2667 23.9941 35.0729C27.085 37.3187 32.2998 42.0438 37.5 42.0146C42.7295 42.0583 48.0469 37.2312 51.0205 35.0729C65.9619 24.2667 70.2979 21.0292 73.5791 18.4917ZM37.5 37.3333C40.8984 37.3917 45.791 33.075 48.252 31.2958C67.6904 17.2521 69.1699 16.0271 73.6523 12.5271C74.502 11.8708 75 10.85 75 9.77083V7C75 3.13542 71.8506 0 67.9688 0H7.03125C3.14941 0 0 3.13542 0 7V9.77083C0 10.85 0.498047 11.8562 1.34766 12.5271C5.83008 16.0125 7.30957 17.2521 26.748 31.2958C29.209 33.075 34.1016 37.3917 37.5 37.3333Z" fill="#6868EB"/>
</svg>
