<svg width="162" height="161" viewBox="0 0 162 161" fill="none" xmlns="http://www.w3.org/2000/svg">
<path id="github" d="M54.1851 129.637C54.1851 130.303 53.4339 130.835 52.4867 130.835C51.4089 130.935 50.6577 130.403 50.6577 129.637C50.6577 128.971 51.4089 128.438 52.356 128.438C53.3359 128.339 54.1851 128.871 54.1851 129.637ZM44.0274 128.139C43.7988 128.805 44.452 129.57 45.4319 129.77C46.281 130.103 47.2609 129.77 47.4569 129.104C47.6528 128.438 47.0323 127.673 46.0524 127.373C45.2032 127.14 44.256 127.473 44.0274 128.139ZM58.4637 127.573C57.5165 127.806 56.8633 128.438 56.9613 129.204C57.0593 129.87 57.9085 130.303 58.8883 130.07C59.8355 129.837 60.4887 129.204 60.3907 128.538C60.2927 127.906 59.4109 127.473 58.4637 127.573ZM79.9548 0C34.6536 0 0 35.0559 0 81.2312C0 118.151 22.7976 149.745 55.3609 160.864C59.5415 161.63 61.0113 159 61.0113 156.836C61.0113 154.772 60.9133 143.386 60.9133 136.395C60.9133 136.395 38.0504 141.389 33.2492 126.474C33.2492 126.474 29.5258 116.786 24.1694 114.29C24.1694 114.29 16.6899 109.063 24.6919 109.163C24.6919 109.163 32.8246 109.829 37.2992 117.752C44.452 130.602 56.4387 126.907 61.1093 124.71C61.8605 119.383 63.9835 115.688 66.3351 113.491C48.0774 111.427 29.6565 108.73 29.6565 76.7035C29.6565 67.5484 32.1387 62.9542 37.3645 57.0949C36.5153 54.9309 33.7391 46.0088 38.2137 34.49C45.0399 32.326 60.75 43.4787 60.75 43.4787C67.2823 41.6143 74.3044 40.6489 81.2613 40.6489C88.2181 40.6489 95.2403 41.6143 101.773 43.4787C101.773 43.4787 117.483 32.2927 124.309 34.49C128.783 46.0421 126.007 54.9309 125.158 57.0949C130.384 62.9875 133.585 67.5817 133.585 76.7035C133.585 108.83 114.347 111.393 96.0895 113.491C99.0944 116.121 101.642 121.114 101.642 128.938C101.642 140.157 101.544 154.04 101.544 156.77C101.544 158.933 103.046 161.563 107.194 160.798C139.856 149.745 162 118.151 162 81.2312C162 35.0559 125.256 0 79.9548 0ZM31.7468 114.822C31.3222 115.155 31.4202 115.921 31.9754 116.553C32.498 117.086 33.2492 117.319 33.6738 116.886C34.0984 116.553 34.0004 115.788 33.4452 115.155C32.9226 114.623 32.1714 114.389 31.7468 114.822ZM28.2194 112.126C27.9907 112.558 28.3173 113.091 28.9706 113.424C29.4931 113.757 30.1464 113.657 30.375 113.191C30.6036 112.758 30.277 112.226 29.6238 111.893C28.9706 111.693 28.448 111.793 28.2194 112.126ZM38.8016 123.977C38.279 124.41 38.475 125.409 39.2262 126.041C39.9774 126.807 40.9246 126.907 41.3492 126.374C41.7738 125.942 41.5778 124.943 40.9246 124.31C40.206 123.545 39.2262 123.445 38.8016 123.977ZM35.0782 119.084C34.5556 119.416 34.5556 120.282 35.0782 121.048C35.6008 121.813 36.4827 122.146 36.9073 121.813C37.4298 121.381 37.4298 120.515 36.9073 119.749C36.45 118.984 35.6008 118.651 35.0782 119.084Z" fill="white"/>
</svg>
