<svg width="163" height="161" viewBox="0 0 163 161" fill="none" xmlns="http://www.w3.org/2000/svg">
<path id="instagram" d="M81.5182 39.2216C58.3909 39.2216 39.7364 57.6514 39.7364 80.5C39.7364 103.349 58.3909 121.778 81.5182 121.778C104.645 121.778 123.3 103.349 123.3 80.5C123.3 57.6514 104.645 39.2216 81.5182 39.2216ZM81.5182 107.336C66.5727 107.336 54.3545 95.3013 54.3545 80.5C54.3545 65.6987 66.5364 53.6637 81.5182 53.6637C96.5 53.6637 108.682 65.6987 108.682 80.5C108.682 95.3013 96.4636 107.336 81.5182 107.336ZM134.755 37.5331C134.755 42.886 130.391 47.1612 125.009 47.1612C119.591 47.1612 115.264 42.8501 115.264 37.5331C115.264 32.2162 119.627 27.9051 125.009 27.9051C130.391 27.9051 134.755 32.2162 134.755 37.5331ZM162.427 47.3049C161.809 34.4076 158.827 22.9833 149.264 13.5708C139.736 4.15837 128.173 1.21248 115.118 0.565826C101.664 -0.188609 61.3364 -0.188609 47.8818 0.565826C34.8636 1.17656 23.3 4.12245 13.7364 13.5349C4.17273 22.9474 1.22727 34.3717 0.572727 47.2689C-0.190909 60.5614 -0.190909 100.403 0.572727 113.695C1.19091 126.592 4.17273 138.017 13.7364 147.429C23.3 156.842 34.8273 159.788 47.8818 160.434C61.3364 161.189 101.664 161.189 115.118 160.434C128.173 159.823 139.736 156.878 149.264 147.429C158.791 138.017 161.773 126.592 162.427 113.695C163.191 100.403 163.191 60.5973 162.427 47.3049ZM145.045 127.958C142.209 134.999 136.718 140.424 129.555 143.262C118.827 147.465 93.3727 146.495 81.5182 146.495C69.6636 146.495 44.1727 147.429 33.4818 143.262C26.3545 140.46 20.8636 135.035 17.9909 127.958C13.7364 117.36 14.7182 92.2117 14.7182 80.5C14.7182 68.7883 13.7727 43.6045 17.9909 33.0425C20.8273 26.0011 26.3182 20.5763 33.4818 17.7382C44.2091 13.5349 69.6636 14.5049 81.5182 14.5049C93.3727 14.5049 118.864 13.5708 129.555 17.7382C136.682 20.5404 142.173 25.9651 145.045 33.0425C149.3 43.6405 148.318 68.7883 148.318 80.5C148.318 92.2117 149.3 117.395 145.045 127.958Z" fill="white"/>
</svg>
