<svg width="56" height="56" viewBox="0 0 56 56" fill="none" xmlns="http://www.w3.org/2000/svg">
<path d="M54.403 39.5716L42.1528 34.3215C41.6294 34.0985 41.0478 34.0515 40.4955 34.1876C39.9432 34.3237 39.45 34.6355 39.0902 35.0762L33.6651 41.7044C25.1509 37.6901 18.299 30.8381 14.2846 22.3239L20.9129 16.8988C21.3544 16.5397 21.6669 16.0465 21.8031 15.4939C21.9393 14.9413 21.8917 14.3594 21.6676 13.8363L16.4175 1.58607C16.1715 1.02213 15.7365 0.561693 15.1874 0.284152C14.6383 0.00661202 14.0096 -0.0706361 13.4096 0.0657282L2.03441 2.69077C1.45599 2.82434 0.939925 3.15003 0.570439 3.61466C0.200953 4.0793 -0.000133244 4.65546 6.62409e-08 5.2491C6.62409e-08 33.3043 22.7395 56 50.7509 56C51.3447 56.0004 51.9211 55.7994 52.386 55.4299C52.8508 55.0604 53.1767 54.5442 53.3103 53.9656L55.9353 42.5904C56.0708 41.9875 55.9919 41.3563 55.7123 40.8053C55.4326 40.2543 54.9696 39.8181 54.403 39.5716Z" fill="#6868EB"/>
</svg>
