<svg width="586" height="187" viewBox="0 0 586 187" fill="none" xmlns="http://www.w3.org/2000/svg">
<g filter="url(#filter0_d_603_1366)">
<path d="M91.1487 62.6523L75.8435 129.857C75.5366 131.085 74.8845 132.082 73.8872 132.849C72.9666 133.616 71.8925 134 70.6651 134H66.5223C65.3715 134 64.3358 133.655 63.4152 132.964C62.4946 132.274 61.8425 131.392 61.4589 130.318L60.9986 128.822C60.0013 125.676 58.8505 122.032 57.5463 117.889C56.3188 113.746 55.0146 109.412 53.6337 104.886C53.557 104.579 53.3652 104.425 53.0583 104.425C52.8281 104.425 52.6747 104.579 52.598 104.886C51.5239 108.261 50.4882 111.637 49.4909 115.012C48.4936 118.311 47.5729 121.303 46.7291 123.988C45.9619 126.673 45.3098 128.783 44.7727 130.318C44.4659 131.315 43.8138 132.197 42.8164 132.964C41.8958 133.655 40.8601 134 39.7094 134H35.4515C34.224 134 33.1116 133.616 32.1143 132.849C31.1937 132.082 30.6183 131.085 30.3881 129.857L15.0829 62.6523C14.776 61.1179 15.0829 59.6219 16.0035 58.1643C16.6173 57.5506 17.2694 57.0902 17.9598 56.7834C18.6503 56.3998 19.4175 56.208 20.2614 56.208H23.4835C24.711 56.208 25.785 56.5916 26.7057 57.3588C27.703 58.1259 28.3551 59.0849 28.662 60.2357L37.9832 101.894C38.0599 102.124 38.2517 102.239 38.5586 102.239C38.8655 102.239 39.0956 102.124 39.2491 101.894C39.2491 101.894 39.4792 101.05 39.9395 99.3618C40.4765 97.674 41.167 95.4492 42.0109 92.6874C42.8548 89.8488 43.8138 86.7034 44.8878 83.2511C45.9619 79.7988 47.0359 76.3081 48.11 72.7791C48.4936 71.705 49.1073 70.8228 49.9512 70.1323C50.7951 69.3651 51.8308 68.9815 53.0583 68.9815C54.3625 68.9815 55.4365 69.3651 56.2804 70.1323C57.2011 70.8228 57.8148 71.7434 58.1217 72.8941L66.9826 101.894C67.136 102.124 67.3662 102.239 67.6731 102.239C67.9799 102.239 68.1717 102.124 68.2484 101.894C69.2458 97.3672 70.2431 92.8792 71.2404 88.4295C72.2378 83.9799 73.1584 79.8371 74.0023 76.0012C74.9229 72.1653 75.6901 68.8665 76.3038 66.1046C76.9176 63.3428 77.3395 61.3864 77.5697 60.2357C77.8765 59.0849 78.4903 58.1259 79.4109 57.3588C80.4082 56.5916 81.5206 56.208 82.7481 56.208H85.9703C86.8142 56.208 87.5814 56.3998 88.2718 56.7834C88.9623 57.0902 89.576 57.5506 90.1131 58.1643C91.1871 59.5452 91.5323 61.0412 91.1487 62.6523ZM138.663 99.8221C138.663 102.124 138.088 104.272 136.937 106.266C135.786 108.184 134.252 109.757 132.334 110.985C130.416 112.135 128.268 112.711 125.889 112.711H112.31C111.927 112.711 111.543 112.864 111.16 113.171C110.853 113.401 110.699 113.708 110.699 114.092V118.925C110.699 119.309 110.853 119.654 111.16 119.961C111.543 120.267 111.927 120.421 112.31 120.421H125.889C127.347 120.421 128.575 120.92 129.572 121.917C130.646 122.914 131.183 124.18 131.183 125.714V128.706C131.183 130.164 130.646 131.43 129.572 132.504C128.575 133.501 127.347 134 125.889 134H109.894C106.365 134 103.334 132.773 100.803 130.318C98.2709 127.786 97.0051 124.717 97.0051 121.111V87.2788C97.0051 84.9005 97.5805 82.7524 98.7312 80.8345C99.9587 78.9165 101.531 77.3821 103.449 76.2314C105.367 75.0039 107.515 74.3901 109.894 74.3901H125.889C128.268 74.3901 130.416 75.0039 132.334 76.2314C134.252 77.3821 135.786 78.9165 136.937 80.8345C138.088 82.7524 138.663 84.9005 138.663 87.2788V99.8221ZM125.084 97.5206V89.6954C125.084 89.2351 124.892 88.8515 124.508 88.5446C124.202 88.2377 123.856 88.0843 123.473 88.0843H112.31C111.927 88.0843 111.543 88.2377 111.16 88.5446C110.853 88.8515 110.699 89.2351 110.699 89.6954V97.5206C110.699 97.8275 110.853 98.1344 111.16 98.4412C111.543 98.7481 111.927 98.9015 112.31 98.9015H123.473C123.856 98.9015 124.202 98.7481 124.508 98.4412C124.892 98.1344 125.084 97.8275 125.084 97.5206ZM189.683 121.111C189.683 124.717 188.418 127.786 185.886 130.318C183.431 132.773 180.439 134 176.91 134H160.914C157.385 134 154.355 132.773 151.823 130.318C149.291 127.786 148.026 124.717 148.026 121.111V61.5015C148.026 59.9672 148.524 58.7013 149.522 57.704C150.596 56.7067 151.861 56.208 153.319 56.208H156.541C157.999 56.208 159.226 56.7067 160.224 57.704C161.221 58.7013 161.72 59.9672 161.72 61.5015V73.0092C161.72 73.3928 161.873 73.738 162.18 74.0449C162.564 74.2751 162.947 74.3901 163.331 74.3901H176.91C179.288 74.3901 181.436 74.9655 183.354 76.1163C185.272 77.2671 186.806 78.8398 187.957 80.8345C189.108 82.7524 189.683 84.9005 189.683 87.2788V121.111ZM176.104 118.925V89.6954C176.104 88.6213 175.567 88.0843 174.493 88.0843H163.331C162.947 88.0843 162.564 88.2377 162.18 88.5446C161.873 88.8515 161.72 89.2351 161.72 89.6954V118.925C161.72 119.309 161.873 119.654 162.18 119.961C162.564 120.267 162.947 120.421 163.331 120.421H174.493C175.567 120.421 176.104 119.922 176.104 118.925Z" fill="#1C5BFF"/>
<path d="M252.671 118.81C252.671 121.572 251.981 124.103 250.6 126.405C249.219 128.706 247.378 130.548 245.076 131.929C242.775 133.31 240.243 134 237.481 134H206.756C205.298 134 204.032 133.501 202.958 132.504C201.961 131.43 201.462 130.164 201.462 128.706V61.5015C201.462 59.9672 201.961 58.7013 202.958 57.704C204.032 56.7067 205.298 56.208 206.756 56.208H237.481C240.243 56.208 242.775 56.8984 245.076 58.2794C247.378 59.6603 249.219 61.5015 250.6 63.8031C251.981 66.1046 252.671 68.6747 252.671 71.5132V118.81ZM238.977 118.81V71.5132C238.977 70.4392 238.479 69.9021 237.481 69.9021H216.767C215.77 69.9021 215.271 70.4008 215.271 71.3981V118.925C215.271 119.922 215.77 120.421 216.767 120.421H237.481C237.865 120.421 238.21 120.267 238.517 119.961C238.824 119.577 238.977 119.193 238.977 118.81ZM303.693 99.8221C303.693 102.124 303.117 104.272 301.967 106.266C300.816 108.184 299.281 109.757 297.363 110.985C295.446 112.135 293.297 112.711 290.919 112.711H277.34C276.956 112.711 276.573 112.864 276.189 113.171C275.882 113.401 275.729 113.708 275.729 114.092V118.925C275.729 119.309 275.882 119.654 276.189 119.961C276.573 120.267 276.956 120.421 277.34 120.421H290.919C292.377 120.421 293.604 120.92 294.602 121.917C295.676 122.914 296.213 124.18 296.213 125.714V128.706C296.213 130.164 295.676 131.43 294.602 132.504C293.604 133.501 292.377 134 290.919 134H274.923C271.394 134 268.364 132.773 265.832 130.318C263.301 127.786 262.035 124.717 262.035 121.111V87.2788C262.035 84.9005 262.61 82.7524 263.761 80.8345C264.988 78.9165 266.561 77.3821 268.479 76.2314C270.397 75.0039 272.545 74.3901 274.923 74.3901H290.919C293.297 74.3901 295.446 75.0039 297.363 76.2314C299.281 77.3821 300.816 78.9165 301.967 80.8345C303.117 82.7524 303.693 84.9005 303.693 87.2788V99.8221ZM290.114 97.5206V89.6954C290.114 89.2351 289.922 88.8515 289.538 88.5446C289.231 88.2377 288.886 88.0843 288.503 88.0843H277.34C276.956 88.0843 276.573 88.2377 276.189 88.5446C275.882 88.8515 275.729 89.2351 275.729 89.6954V97.5206C275.729 97.8275 275.882 98.1344 276.189 98.4412C276.573 98.7481 276.956 98.9015 277.34 98.9015H288.503C288.886 98.9015 289.231 98.7481 289.538 98.4412C289.922 98.1344 290.114 97.8275 290.114 97.5206ZM355.404 81.1797L341.134 130.202C340.827 131.277 340.175 132.197 339.178 132.964C338.257 133.655 337.183 134 335.956 134H332.849C331.621 134 330.547 133.655 329.626 132.964C328.706 132.197 328.054 131.277 327.67 130.202L313.401 81.1797C312.863 79.4152 313.094 77.8808 314.091 76.5766C315.318 75.119 316.738 74.3901 318.349 74.3901H321.686C322.914 74.3901 323.988 74.7737 324.908 75.5409C325.829 76.2314 326.443 77.152 326.749 78.3028L333.884 102.469C333.961 102.776 334.114 102.929 334.345 102.929C334.651 102.929 334.843 102.776 334.92 102.469L342.055 78.3028C342.438 77.152 343.052 76.2314 343.896 75.5409C344.817 74.7737 345.891 74.3901 347.118 74.3901H350.455C352.143 74.3901 353.524 75.119 354.598 76.5766C355.595 77.9575 355.864 79.4919 355.404 81.1797Z" fill="black"/>
<path d="M417.747 64.0332L387.136 119.04C387.06 119.347 387.098 119.654 387.251 119.961C387.405 120.267 387.635 120.421 387.942 120.421H411.993C413.527 120.421 414.755 120.92 415.675 121.917C416.673 122.914 417.171 124.18 417.171 125.714V128.706C417.171 130.164 416.673 131.43 415.675 132.504C414.755 133.501 413.527 134 411.993 134H372.176C370.105 134 368.609 133.118 367.688 131.353C366.691 129.665 366.653 127.939 367.573 126.175L398.184 71.168C398.337 70.8611 398.299 70.5926 398.069 70.3625C397.915 70.0556 397.685 69.9021 397.378 69.9021H373.097C371.639 69.9021 370.373 69.4035 369.299 68.4061C368.302 67.3321 367.803 66.0662 367.803 64.6086V61.5015C367.803 59.9672 368.302 58.7013 369.299 57.704C370.373 56.7067 371.639 56.208 373.097 56.208H413.029C414.947 56.208 416.481 57.0902 417.632 58.8548C418.629 60.5426 418.667 62.2687 417.747 64.0332ZM469.228 121.111C469.228 124.717 467.963 127.786 465.431 130.318C462.976 132.773 459.984 134 456.455 134H440.459C436.93 134 433.9 132.773 431.368 130.318C428.836 127.786 427.571 124.717 427.571 121.111V87.2788C427.571 84.9005 428.146 82.7524 429.297 80.8345C430.524 78.8398 432.097 77.2671 434.015 76.1163C435.933 74.9655 438.081 74.3901 440.459 74.3901H456.455C458.833 74.3901 460.981 74.9655 462.899 76.1163C464.817 77.2671 466.351 78.8398 467.502 80.8345C468.653 82.7524 469.228 84.9005 469.228 87.2788V121.111ZM455.649 118.925V89.6954C455.649 89.2351 455.458 88.8515 455.074 88.5446C454.767 88.2377 454.422 88.0843 454.038 88.0843H442.876C442.492 88.0843 442.109 88.2377 441.725 88.5446C441.418 88.8515 441.265 89.2351 441.265 89.6954V118.925C441.265 119.309 441.418 119.654 441.725 119.961C442.109 120.267 442.492 120.421 442.876 120.421H454.038C454.422 120.421 454.767 120.267 455.074 119.961C455.458 119.654 455.649 119.309 455.649 118.925ZM520.249 128.706C520.249 130.164 519.75 131.43 518.753 132.504C517.756 133.501 516.528 134 515.07 134H511.848C510.391 134 509.163 133.501 508.166 132.504C507.168 131.43 506.67 130.164 506.67 128.706V89.6954C506.67 89.2351 506.478 88.8515 506.094 88.5446C505.788 88.2377 505.442 88.0843 505.059 88.0843H493.896C493.513 88.0843 493.129 88.2377 492.745 88.5446C492.439 88.8515 492.285 89.2351 492.285 89.6954V128.706C492.285 130.164 491.786 131.43 490.789 132.504C489.792 133.501 488.564 134 487.107 134H483.885C482.427 134 481.161 133.501 480.087 132.504C479.09 131.43 478.591 130.164 478.591 128.706V87.2788C478.591 84.9005 479.166 82.7524 480.317 80.8345C481.545 78.8398 483.117 77.2671 485.035 76.1163C486.953 74.9655 489.101 74.3901 491.48 74.3901H507.475C509.854 74.3901 512.002 74.9655 513.92 76.1163C515.838 77.2671 517.372 78.8398 518.523 80.8345C519.673 82.7524 520.249 84.9005 520.249 87.2788V128.706ZM571.269 99.8221C571.269 102.124 570.694 104.272 569.543 106.266C568.392 108.184 566.858 109.757 564.94 110.985C563.022 112.135 560.874 112.711 558.496 112.711H544.917C544.533 112.711 544.149 112.864 543.766 113.171C543.459 113.401 543.306 113.708 543.306 114.092V118.925C543.306 119.309 543.459 119.654 543.766 119.961C544.149 120.267 544.533 120.421 544.917 120.421H558.496C559.953 120.421 561.181 120.92 562.178 121.917C563.252 122.914 563.789 124.18 563.789 125.714V128.706C563.789 130.164 563.252 131.43 562.178 132.504C561.181 133.501 559.953 134 558.496 134H542.5C538.971 134 535.941 132.773 533.409 130.318C530.877 127.786 529.611 124.717 529.611 121.111V87.2788C529.611 84.9005 530.187 82.7524 531.338 80.8345C532.565 78.9165 534.138 77.3821 536.056 76.2314C537.974 75.0039 540.122 74.3901 542.5 74.3901H558.496C560.874 74.3901 563.022 75.0039 564.94 76.2314C566.858 77.3821 568.392 78.9165 569.543 80.8345C570.694 82.7524 571.269 84.9005 571.269 87.2788V99.8221ZM557.69 97.5206V89.6954C557.69 89.2351 557.498 88.8515 557.115 88.5446C556.808 88.2377 556.463 88.0843 556.079 88.0843H544.917C544.533 88.0843 544.149 88.2377 543.766 88.5446C543.459 88.8515 543.306 89.2351 543.306 89.6954V97.5206C543.306 97.8275 543.459 98.1344 543.766 98.4412C544.149 98.7481 544.533 98.9015 544.917 98.9015H556.079C556.463 98.9015 556.808 98.7481 557.115 98.4412C557.498 98.1344 557.69 97.8275 557.69 97.5206Z" fill="#B6B6B6"/>
</g>
<defs>
<filter id="filter0_d_603_1366" x="-5.48081" y="0" width="596.962" height="215.769" filterUnits="userSpaceOnUse" color-interpolation-filters="sRGB">
<feFlood flood-opacity="0" result="BackgroundImageFix"/>
<feColorMatrix in="SourceAlpha" type="matrix" values="0 0 0 0 0 0 0 0 0 0 0 0 0 0 0 0 0 0 127 0" result="hardAlpha"/>
<feOffset dy="14.3846"/>
<feGaussianBlur stdDeviation="7.19231"/>
<feComposite in2="hardAlpha" operator="out"/>
<feColorMatrix type="matrix" values="0 0 0 0 0 0 0 0 0 0 0 0 0 0 0 0 0 0 0.25 0"/>
<feBlend mode="normal" in2="BackgroundImageFix" result="effect1_dropShadow_603_1366"/>
<feBlend mode="normal" in="SourceGraphic" in2="effect1_dropShadow_603_1366" result="shape"/>
</filter>
</defs>
</svg>
