<svg width="542" height="199" viewBox="0 0 542 199" fill="none" xmlns="http://www.w3.org/2000/svg">
<g filter="url(#filter0_d_603_1368)">
<path d="M53.3079 26.3829H62.18L40.6217 59.135V86H32.869V59.135L11.3106 26.3829H20.1827L36.7246 52.7504L53.3079 26.3829ZM87.9256 41.9298C89.2799 41.9298 90.6895 42.0403 92.1544 42.2615C93.6193 42.4549 95.0565 42.8419 96.4661 43.4223C97.8756 44.0303 99.2023 44.8595 100.446 45.9098C101.717 46.9324 102.837 48.2729 103.804 49.9312C104.772 51.6172 105.532 53.6487 106.084 56.0256C106.637 58.3749 106.914 61.1803 106.914 64.4417C106.914 67.7031 106.637 70.5222 106.084 72.8992C105.532 75.2485 104.772 77.2523 103.804 78.9106C102.837 80.5966 101.717 81.9647 100.446 83.015C99.2023 84.0653 97.8756 84.8806 96.4661 85.461C95.0565 86.0691 93.6193 86.4699 92.1544 86.6633C90.6895 86.8844 89.2799 86.995 87.9256 86.995C86.599 86.995 85.2032 86.8844 83.7383 86.6633C82.3011 86.4699 80.8777 86.0691 79.4681 85.461C78.0586 84.8806 76.7319 84.0653 75.4881 83.015C74.2444 81.9647 73.1388 80.5966 72.1715 78.9106C71.2041 77.2523 70.444 75.2485 69.8913 72.8992C69.3385 70.5222 69.0621 67.7031 69.0621 64.4417C69.0621 61.1803 69.3385 58.3749 69.8913 56.0256C70.444 53.6487 71.2041 51.6172 72.1715 49.9312C73.1388 48.2729 74.2444 46.9324 75.4881 45.9098C76.7319 44.8595 78.0586 44.0303 79.4681 43.4223C80.8777 42.8419 82.3011 42.4549 83.7383 42.2615C85.1756 42.0403 86.5713 41.9298 87.9256 41.9298ZM87.9256 47.7754C86.3502 47.7754 84.8577 48.0242 83.4481 48.5217C82.0662 49.0192 80.8501 49.8898 79.7998 51.1335C78.7219 52.4049 77.8651 54.1047 77.2294 56.2329C76.5937 58.3611 76.2758 61.0974 76.2758 64.4417C76.2758 67.7583 76.5937 70.4946 77.2294 72.6504C77.8651 74.7786 78.7219 76.4646 79.7998 77.7083C80.8501 78.9797 82.0662 79.8642 83.4481 80.3617C84.8577 80.8315 86.3502 81.0665 87.9256 81.0665C89.5287 81.0665 91.035 80.8315 92.4446 80.3617C93.8818 79.8642 95.1394 78.9797 96.2173 77.7083C97.2952 76.4646 98.1382 74.7786 98.7463 72.6504C99.382 70.4946 99.6998 67.7583 99.6998 64.4417C99.6998 61.0974 99.382 58.3611 98.7463 56.2329C98.1382 54.1047 97.2952 52.4049 96.2173 51.1335C95.1394 49.8898 93.8818 49.0192 92.4446 48.5217C91.035 48.0242 89.5287 47.7754 87.9256 47.7754ZM153.72 85.2537L146.838 86.7877C146.313 85.1294 145.94 83.5263 145.719 81.9785C145.608 81.2599 145.47 79.7951 145.304 77.584H144.433C142.913 80.3755 141.034 82.6004 138.795 84.2587C136.335 86.0829 133.737 86.995 131.001 86.995C126.883 86.995 123.746 86 121.59 84.01C119.738 82.324 118.453 79.7398 117.734 76.2573C117.264 73.8803 117.029 70.3426 117.029 65.644V42.8833H124.16V67.634C124.16 71.7522 124.561 74.6957 125.363 76.4646C126.551 79.0903 128.942 80.4031 132.535 80.4031C135.078 80.4031 137.565 79.187 139.997 76.7548C141.628 75.1241 143.369 72.7333 145.221 69.5825V42.8833H152.352V69.4996C152.352 73.1756 152.449 76.3678 152.642 79.0765C152.753 80.7624 153.112 82.8215 153.72 85.2537ZM162.426 26.3829H207.077V32.7675H188.752V86H180.958V32.7675H162.426V26.3829ZM253.054 85.2537L246.172 86.7877C245.647 85.1294 245.274 83.5263 245.053 81.9785C244.942 81.2599 244.804 79.7951 244.638 77.584H243.768C242.247 80.3755 240.368 82.6004 238.129 84.2587C235.669 86.0829 233.071 86.995 230.335 86.995C226.217 86.995 223.08 86 220.924 84.01C219.072 82.324 217.787 79.7398 217.068 76.2573C216.598 73.8803 216.364 70.3426 216.364 65.644V42.8833H223.494V67.634C223.494 71.7522 223.895 74.6957 224.697 76.4646C225.885 79.0903 228.276 80.4031 231.869 80.4031C234.412 80.4031 236.899 79.187 239.331 76.7548C240.962 75.1241 242.703 72.7333 244.555 69.5825V42.8833H251.686V69.4996C251.686 73.1756 251.783 76.3678 251.976 79.0765C252.087 80.7624 252.446 82.8215 253.054 85.2537ZM265.74 26.3H272.871V51.1335L273.742 51.2165C275.041 48.342 276.575 46.1585 278.344 44.666C280.389 42.8419 282.863 41.9298 285.765 41.9298C290.823 41.9298 294.692 44.058 297.373 48.3144C299.778 52.2667 300.98 57.3661 300.98 63.6125C300.98 71.2132 299.17 77.0726 295.549 81.1908C292.094 85.0603 286.981 86.995 280.209 86.995C276.506 86.995 271.683 86.5528 265.74 85.6683V26.3ZM272.457 60.5446V80.1129C274.999 80.6381 277.584 80.9006 280.209 80.9006C284.687 80.9006 288.045 79.5878 290.284 76.9621C292.605 74.2535 293.766 70.232 293.766 64.8977C293.766 60.0609 293.241 56.3297 292.191 53.704C290.809 50.2491 288.46 48.5217 285.143 48.5217C282.241 48.5217 279.684 49.7378 277.473 52.17C275.925 53.8283 274.253 56.6199 272.457 60.5446ZM343.516 83.5954C340.448 84.8115 337.56 85.6822 334.851 86.2073C332.171 86.7324 329.766 86.995 327.638 86.995C324.376 86.995 321.53 86.4837 319.097 85.461C316.665 84.4108 314.634 82.9459 313.003 81.0665C311.4 79.187 310.184 76.9483 309.355 74.3502C308.553 71.7245 308.152 68.8362 308.152 65.6854C308.152 63.7507 308.291 61.816 308.567 59.8812C308.843 57.9465 309.286 56.1085 309.894 54.3673C310.502 52.5984 311.289 50.9539 312.257 49.4337C313.252 47.9136 314.454 46.6008 315.864 45.4952C317.273 44.3897 318.918 43.519 320.797 42.8833C322.677 42.2476 324.819 41.9298 327.223 41.9298C333.387 41.9298 338.03 43.8645 341.153 47.734C344.276 51.5758 345.838 57.0897 345.838 64.2758V66.556H315.49C315.49 68.8777 315.739 70.9368 316.237 72.7333C316.734 74.5022 317.494 76.0085 318.517 77.2523C319.567 78.4684 320.88 79.3943 322.455 80.03C324.058 80.6657 325.952 80.9835 328.135 80.9835C329.351 80.9835 330.554 80.9006 331.742 80.7348C332.958 80.5413 334.133 80.3064 335.266 80.03C336.399 79.726 337.477 79.3943 338.5 79.035C339.55 78.6757 340.531 78.3302 341.443 77.9985L343.516 83.5954ZM338.666 60.8348C338.445 56.3573 337.367 53.0959 335.432 51.0506C333.525 48.9777 330.789 47.9412 327.223 47.9412C323.658 47.9412 320.935 48.9777 319.056 51.0506C317.204 53.0959 316.085 56.3573 315.698 60.8348H338.666Z" fill="white"/>
</g>
<g filter="url(#filter1_d_603_1368)">
<path d="M452.733 29.1865C412.438 29.1865 379.767 61.8694 379.767 102.153C379.767 142.46 412.438 175.12 452.733 175.12C493.029 175.12 525.7 142.46 525.7 102.153C525.7 61.8694 493.029 29.1865 452.733 29.1865ZM452.733 61.5508C459.558 61.5508 465.091 67.0833 465.091 73.908C465.091 80.7328 459.558 86.2653 452.733 86.2653C445.909 86.2653 440.376 80.7328 440.376 73.908C440.376 67.0833 445.909 61.5508 452.733 61.5508ZM469.21 136.283C469.21 138.233 467.629 139.813 465.679 139.813H439.788C437.838 139.813 436.257 138.233 436.257 136.283V129.221C436.257 127.272 437.838 125.691 439.788 125.691H443.318V106.861H439.788C437.838 106.861 436.257 105.28 436.257 103.33V96.2688C436.257 94.319 437.838 92.7381 439.788 92.7381H458.618C460.567 92.7381 462.148 94.319 462.148 96.2688V125.691H465.679C467.629 125.691 469.21 127.272 469.21 129.221V136.283Z" fill="url(#paint0_linear_603_1368)"/>
</g>
<g filter="url(#filter2_d_603_1368)">
<path d="M134.04 165.061C130.751 166.415 127.337 167.452 123.8 168.171C120.289 168.889 116.876 169.248 113.559 169.248C109.248 169.248 105.42 168.64 102.075 167.424C98.7587 166.208 95.9671 164.356 93.7008 161.869C91.4344 159.381 89.7069 156.258 88.5185 152.499C87.3576 148.713 86.7772 144.263 86.7772 139.15C86.7772 133.594 87.3715 128.827 88.5599 124.847C89.776 120.867 91.5311 117.619 93.8251 115.104C96.1192 112.561 98.9383 110.695 102.283 109.507C105.655 108.318 109.496 107.724 113.808 107.724C116.489 107.724 119.308 108.001 122.266 108.553C125.223 109.079 128.263 109.839 131.386 110.834L129.189 117.052C126.398 116.113 123.772 115.408 121.312 114.938C118.88 114.468 116.42 114.233 113.932 114.233C110.726 114.233 107.921 114.703 105.516 115.643C103.112 116.583 101.108 118.034 99.5049 119.996C97.9295 121.958 96.741 124.46 95.9395 127.5C95.1656 130.54 94.7787 134.161 94.7787 138.362C94.7787 142.508 95.138 146.115 95.8566 149.183C96.6028 152.251 97.736 154.793 99.2562 156.811C100.776 158.801 102.711 160.293 105.06 161.288C107.41 162.256 110.187 162.739 113.393 162.739C115.66 162.739 117.94 162.505 120.234 162.035C122.528 161.565 124.629 161.012 126.536 160.376V143.876H116.544V137.616H134.04V165.061ZM149.462 132.765L147.638 126.961C152.281 125.109 157.146 124.183 162.231 124.183C166.681 124.183 170.081 124.929 172.43 126.422C175.111 128.136 176.452 131.051 176.452 135.17V152.126C176.452 154.393 176.479 156.714 176.535 159.091C176.562 160.501 176.7 161.966 176.949 163.486C177.17 164.923 177.46 166.291 177.82 167.59L171.021 169.083C170.385 167.231 169.984 165.158 169.818 162.864L168.989 162.781C165.562 167.093 161.195 169.248 155.888 169.248C152.019 169.248 148.909 168.184 146.56 166.056C144.211 163.9 143.036 160.874 143.036 156.977C143.036 154.075 143.672 151.698 144.943 149.846C146.242 147.994 148.066 146.433 150.416 145.161C154.119 143.143 159.302 142.135 165.963 142.135C166.847 142.135 168.036 142.162 169.528 142.218V135.916C169.528 133.926 168.92 132.489 167.704 131.604C166.488 130.72 164.581 130.278 161.983 130.278C158.196 130.278 154.023 131.107 149.462 132.765ZM169.528 156.148V147.441C168.782 147.386 167.69 147.358 166.253 147.358C163.821 147.358 161.582 147.566 159.537 147.98C156.496 148.588 154.133 149.556 152.447 150.882C150.789 152.181 149.96 154.061 149.96 156.521C149.96 160.943 152.364 163.154 157.173 163.154C159.661 163.154 161.983 162.491 164.138 161.164C165.907 160.058 167.704 158.386 169.528 156.148ZM193.947 115.27H201.078V125.137H215.588V131.148H201.078V155.899C201.078 157.557 201.119 158.829 201.202 159.713C201.313 160.57 201.562 161.247 201.948 161.744C202.667 162.739 204.118 163.237 206.302 163.237C207.518 163.237 208.692 163.113 209.826 162.864C210.986 162.615 212.05 162.339 213.018 162.035C213.792 163.721 214.497 165.572 215.132 167.59C211.871 168.696 208.582 169.248 205.265 169.248C202.861 169.248 200.926 168.972 199.461 168.419C198.024 167.894 196.891 167.023 196.061 165.807C195.205 164.536 194.638 163.016 194.362 161.247C194.085 159.478 193.947 157.032 193.947 153.909V131.148H187.728V125.137H193.947V115.27ZM226.16 108.553H233.291V134.548C235.143 131.397 237.243 128.937 239.593 127.168C242.274 125.178 244.941 124.183 247.594 124.183C251.574 124.183 254.67 125.178 256.881 127.168C258.788 128.882 260.101 131.466 260.819 134.921C261.372 137.547 261.648 141.084 261.648 145.534V168.253H254.518V143.544C254.518 141.858 254.476 140.476 254.393 139.398C254.31 138.293 254.103 137.146 253.771 135.957C253.467 134.741 253.011 133.802 252.403 133.138C251.823 132.447 250.994 131.881 249.916 131.438C248.865 130.996 247.58 130.775 246.06 130.775C243.434 130.775 240.905 132.019 238.473 134.506C236.925 136.082 235.198 138.486 233.291 141.72V168.253H226.16V108.553ZM306.216 165.849C303.148 167.065 300.26 167.936 297.551 168.461C294.87 168.986 292.466 169.248 290.338 169.248C287.076 169.248 284.229 168.737 281.797 167.714C279.365 166.664 277.334 165.199 275.703 163.32C274.1 161.44 272.884 159.202 272.055 156.604C271.253 153.978 270.852 151.09 270.852 147.939C270.852 146.004 270.99 144.069 271.267 142.135C271.543 140.2 271.985 138.362 272.593 136.621C273.202 134.852 273.989 133.207 274.957 131.687C275.952 130.167 277.154 128.854 278.563 127.749C279.973 126.643 281.618 125.772 283.497 125.137C285.376 124.501 287.518 124.183 289.923 124.183C296.087 124.183 300.73 126.118 303.853 129.987C306.976 133.829 308.538 139.343 308.538 146.529V148.809H278.19C278.19 151.131 278.439 153.19 278.937 154.987C279.434 156.756 280.194 158.262 281.217 159.506C282.267 160.722 283.58 161.648 285.155 162.283C286.758 162.919 288.652 163.237 290.835 163.237C292.051 163.237 293.254 163.154 294.442 162.988C295.658 162.795 296.833 162.56 297.966 162.283C299.099 161.979 300.177 161.648 301.2 161.288C302.25 160.929 303.231 160.584 304.143 160.252L306.216 165.849ZM301.366 143.088C301.144 138.611 300.067 135.349 298.132 133.304C296.225 131.231 293.488 130.195 289.923 130.195C286.358 130.195 283.635 131.231 281.756 133.304C279.904 135.349 278.785 138.611 278.398 143.088H301.366ZM327.401 135.128C328.258 133.415 329.17 131.867 330.138 130.485C331.133 129.103 332.224 127.928 333.413 126.961C334.491 126.021 335.679 125.33 336.978 124.888C338.277 124.418 339.756 124.183 341.414 124.183C341.967 124.183 342.603 124.211 343.321 124.266C344.068 124.321 344.772 124.418 345.436 124.556C345.325 125.938 345.187 127.237 345.021 128.453C344.883 129.67 344.69 130.899 344.441 132.143C343.059 131.894 341.787 131.715 340.627 131.604C339.493 131.494 338.415 131.521 337.393 131.687C336.177 131.908 335.113 132.323 334.201 132.931C333.316 133.511 332.487 134.299 331.713 135.294C330.967 136.261 330.234 137.436 329.516 138.818C328.797 140.172 328.009 141.734 327.153 143.503V168.253H320.022V141.679C320.022 139.937 319.994 138.403 319.939 137.077C319.911 135.75 319.828 134.493 319.69 133.304C319.58 132.088 319.4 130.899 319.151 129.739C318.902 128.55 318.571 127.237 318.156 125.8C319.317 125.496 320.45 125.22 321.556 124.971C322.689 124.722 323.836 124.487 324.997 124.266C325.384 125.372 325.688 126.353 325.909 127.21C326.158 128.066 326.351 128.909 326.489 129.739C326.627 130.54 326.724 131.369 326.78 132.226C326.862 133.055 326.945 134.023 327.028 135.128H327.401Z" fill="#DE8104"/>
</g>
<defs>
<filter id="filter0_d_603_1368" x="0.697213" y="26.2998" width="355.754" height="81.922" filterUnits="userSpaceOnUse" color-interpolation-filters="sRGB">
<feFlood flood-opacity="0" result="BackgroundImageFix"/>
<feColorMatrix in="SourceAlpha" type="matrix" values="0 0 0 0 0 0 0 0 0 0 0 0 0 0 0 0 0 0 127 0" result="hardAlpha"/>
<feOffset dy="10.6133"/>
<feGaussianBlur stdDeviation="5.30667"/>
<feComposite in2="hardAlpha" operator="out"/>
<feColorMatrix type="matrix" values="0 0 0 0 0 0 0 0 0 0 0 0 0 0 0 0 0 0 0.25 0"/>
<feBlend mode="normal" in2="BackgroundImageFix" result="effect1_dropShadow_603_1368"/>
<feBlend mode="normal" in="SourceGraphic" in2="effect1_dropShadow_603_1368" result="shape"/>
</filter>
<filter id="filter1_d_603_1368" x="374.46" y="23.8799" width="167.16" height="167.16" filterUnits="userSpaceOnUse" color-interpolation-filters="sRGB">
<feFlood flood-opacity="0" result="BackgroundImageFix"/>
<feColorMatrix in="SourceAlpha" type="matrix" values="0 0 0 0 0 0 0 0 0 0 0 0 0 0 0 0 0 0 127 0" result="hardAlpha"/>
<feOffset dx="5.30667" dy="5.30667"/>
<feGaussianBlur stdDeviation="5.30667"/>
<feComposite in2="hardAlpha" operator="out"/>
<feColorMatrix type="matrix" values="0 0 0 0 0 0 0 0 0 0 0 0 0 0 0 0 0 0 0.25 0"/>
<feBlend mode="normal" in2="BackgroundImageFix" result="effect1_dropShadow_603_1368"/>
<feBlend mode="normal" in="SourceGraphic" in2="effect1_dropShadow_603_1368" result="shape"/>
</filter>
<filter id="filter2_d_603_1368" x="76.164" y="107.724" width="279.885" height="82.7511" filterUnits="userSpaceOnUse" color-interpolation-filters="sRGB">
<feFlood flood-opacity="0" result="BackgroundImageFix"/>
<feColorMatrix in="SourceAlpha" type="matrix" values="0 0 0 0 0 0 0 0 0 0 0 0 0 0 0 0 0 0 127 0" result="hardAlpha"/>
<feOffset dy="10.6133"/>
<feGaussianBlur stdDeviation="5.30667"/>
<feComposite in2="hardAlpha" operator="out"/>
<feColorMatrix type="matrix" values="0 0 0 0 0 0 0 0 0 0 0 0 0 0 0 0 0 0 0.25 0"/>
<feBlend mode="normal" in2="BackgroundImageFix" result="effect1_dropShadow_603_1368"/>
<feBlend mode="normal" in="SourceGraphic" in2="effect1_dropShadow_603_1368" result="shape"/>
</filter>
<linearGradient id="paint0_linear_603_1368" x1="525.7" y1="175.12" x2="379.767" y2="29.1865" gradientUnits="userSpaceOnUse">
<stop offset="0.25" stop-color="#0090E0"/>
<stop offset="1" stop-color="#306989"/>
</linearGradient>
</defs>
</svg>
